<svg xmlns="http://www.w3.org/2000/svg" viewBox="-0.5 -0.5 40 40" height="40" width="40"><desc>Group Team Collective Streamline Icon: https://streamlinehq.com</desc><defs></defs><path d="M14.9123 37.083475C14.921075 34.55335 16.969875 32.50455 19.5 32.495774999999995C22.030125 32.50455 24.078925 34.55335 24.087699999999998 37.083475" fill="none" stroke="#000000" stroke-miterlimit="10" stroke-width="1"></path><path d="M16.44695 26.3735875C16.441425000000002 28.723825 18.982275 30.198675 21.020512500000002 29.028187499999998C21.9708125 28.4825125 22.55565 27.469324999999998 22.5532125 26.3735875C22.558574999999998 24.0231875 20.017725 22.5485 17.979487499999998 23.718825C17.02935 24.2646625 16.44435 25.2776875 16.44695 26.3735875" fill="none" stroke="#000000" stroke-miterlimit="10" stroke-width="1"></path><path d="M17.7896875 11.42765C18.8859125 10.979800000000001 20.1140875 10.979800000000001 21.210475 11.42765" fill="none" stroke="#000000" stroke-miterlimit="10" stroke-width="1"></path><path d="M30.018137499999998 11.42765C30.563 11.212175 31.1426375 11.098424999999999 31.728450000000002 11.091925C34.26215 11.091925 36.31615 13.145925 36.31615 15.679624999999998" fill="none" stroke="#000000" stroke-miterlimit="10" stroke-width="1"></path><path d="M2.68385 15.679624999999998C2.6749125 13.1421875 4.7341125 11.0829875 7.27155 11.091925C7.857362500000001 11.098424999999999 8.4371625 11.212175 8.9818625 11.42765" fill="none" stroke="#000000" stroke-miterlimit="10" stroke-width="1"></path><path d="M16.44695 4.9697375C16.441425000000002 7.3199749999999995 18.982275 8.794825000000001 21.020512500000002 7.624337500000001C21.9708125 7.078662499999999 22.55565 6.065475 22.5532125 4.9697375C22.558574999999998 2.6193375000000003 20.017725 1.14465 17.979487499999998 2.314975C17.02935 2.8608124999999998 16.44435 3.8738375 16.44695 4.9697375" fill="none" stroke="#000000" stroke-miterlimit="10" stroke-width="1"></path><path d="M28.6754 4.9697375C28.669875 7.3199749999999995 31.210887500000002 8.794825000000001 33.2489625 7.624337500000001C34.1992625 7.078662499999999 34.7841 6.065475 34.781662499999996 4.9697375C34.787025 2.6193375000000003 32.246175 1.14465 30.2081 2.314975C29.2578 2.8608124999999998 28.6728 3.8738375 28.6754 4.9697375" fill="none" stroke="#000000" stroke-miterlimit="10" stroke-width="1"></path><path d="M8.7901125 26.3735875C8.7988875 23.8434625 10.847687500000001 21.7946625 13.3778125 21.7858875C13.9709375 21.7867 14.5578875 21.9063 15.104212500000001 22.1375375" fill="none" stroke="#000000" stroke-miterlimit="10" stroke-width="1"></path><path d="M23.89595 22.1375375C24.4421125 21.9063 25.0290625 21.7867 25.6221875 21.7858875C28.1451625 21.8118875 30.1838875 23.8506125 30.209887499999997 26.3735875" fill="none" stroke="#000000" stroke-miterlimit="10" stroke-width="1"></path><path d="M10.3246 15.679624999999998C10.3192375 18.0298625 12.8600875 19.5047125 14.898162500000002 18.334225C15.8484625 17.78855 16.4334625 16.7753625 16.4308625 15.679624999999998C16.4363875 13.329225000000001 13.895375 11.8545375 11.8573 13.025025C10.907 13.5707 10.322162500000001 14.583725000000001 10.3246 15.679624999999998" fill="none" stroke="#000000" stroke-miterlimit="10" stroke-width="1"></path><path d="M22.5691375 15.679624999999998C22.563775 18.0298625 25.104625 19.5047125 27.142699999999998 18.334225C28.093 17.78855 28.6778375 16.7753625 28.6754 15.679624999999998C28.6807625 13.329225000000001 26.139912499999998 11.8545375 24.1018375 13.025025C23.1515375 13.5707 22.5665375 14.583725000000001 22.5691375 15.679624999999998" fill="none" stroke="#000000" stroke-miterlimit="10" stroke-width="1"></path><path d="M4.2183375 4.9697375C4.212975 7.3199749999999995 6.753825 8.794825000000001 8.7920625 7.624337500000001C9.742199999999999 7.078662499999999 10.3272 6.065475 10.3246 4.9697375C10.330125 2.6193375000000003 7.789275 1.14465 5.7510375 2.314975C4.8007375 2.8608124999999998 4.2158999999999995 3.8738375 4.2183375 4.9697375" fill="none" stroke="#000000" stroke-miterlimit="10" stroke-width="1"></path></svg>